<svg width="25" height="23" viewBox="0 0 25 23" fill="none" xmlns="http://www.w3.org/2000/svg">
<path d="M18.5228 12.703L18.3775 13.1244L18.5937 13.5141L22.7502 21.006L14.7962 17.7729L14.3835 17.6052L13.9828 17.7998C12.1133 18.7077 9.98099 18.949 7.95007 18.4815C5.91929 18.014 4.1188 16.8675 2.85359 15.241C1.58862 13.6148 0.936277 11.6087 1.00491 9.56463C1.07355 7.5205 1.85909 5.56091 3.23086 4.02018C4.6029 2.47915 6.47691 1.45234 8.53489 1.11817C10.593 0.783985 12.7042 1.16383 14.5082 2.19134C16.3119 3.21869 17.6953 4.82881 18.426 6.74467C19.1566 8.66025 19.1908 10.7656 18.5228 12.703Z" stroke="#555555" stroke-width="2"/>
</svg>
