<svg width="20" height="20" viewBox="0 0 20 20" fill="none" xmlns="http://www.w3.org/2000/svg">
<path d="M10.6367 17.941L10.3314 17.8313L10.0199 17.9217C7.35996 18.6938 5.51425 18.9003 4.23864 18.7433C3.01806 18.5931 2.35058 18.1184 1.92312 17.4646C1.4543 16.7475 1.19964 15.7012 1.08525 14.2822C0.992816 13.1357 0.997314 11.8559 1.00228 10.4438C1.00343 10.1167 1.0046 9.78239 1.0046 9.44103C1.0046 8.21464 1.22697 7.29518 1.60824 6.55425C1.98973 5.81291 2.56348 5.18574 3.36349 4.59223C4.17313 3.99157 5.19052 3.44257 6.43721 2.85055C7.15806 2.50824 7.91821 2.16834 8.74053 1.80063C9.23703 1.57862 9.7562 1.34647 10.3031 1.09754C10.3712 1.128 10.439 1.15828 10.5063 1.18838C13.1592 2.37382 15.206 3.28845 16.6581 4.53903C18.1207 5.79859 18.9916 7.42102 18.9916 10.2212C18.9916 10.5851 18.9937 10.9439 18.9959 11.2969C19.0029 12.4703 19.0096 13.5811 18.9354 14.613C18.8385 15.9614 18.6101 17.0049 18.172 17.7279C17.7757 18.3819 17.1692 18.8414 16.0675 18.9667C14.8973 19.0997 13.1681 18.8504 10.6367 17.941Z" stroke="#555555" stroke-width="2"/>
</svg>
