<svg width="46" height="44" viewBox="0 0 46 44" fill="none" xmlns="http://www.w3.org/2000/svg">
<path d="M36 0C33.7 0 31.3996 0.899609 29.5996 2.59961L23.5996 8.59961C21.0996 11.0996 20.4 14.8004 21.5 17.9004L25 14.4004C25.1 13.3004 25.6004 12.3 26.4004 11.5L32.4004 5.5C33.4004 4.5 34.7 4 36 4C37.3 4 38.6 4.5 39.5 5.5C41.4 7.4 41.4 10.5996 39.5 12.5996L33.5 18.5996C32.7 19.3996 31.6996 19.9 30.5996 20L27 23.5996C28 23.7996 29 24 30 24C32.3 24 34.6004 23.1004 36.4004 21.4004L42.4004 15.4004C45.9004 11.9004 45.9004 6.09961 42.4004 2.59961C40.6004 0.899609 38.3 0 36 0ZM29.5 13.5C29 13.5 28.4996 13.6996 28.0996 14.0996L15.0996 27.0996C14.2996 27.8996 14.2996 29.2004 15.0996 29.9004C15.4996 30.3004 16 30.5 16.5 30.5C17 30.5 17.5004 30.3004 17.9004 29.9004L30.9004 16.9004C31.7004 16.1004 31.7004 14.8996 30.9004 14.0996C30.5004 13.6996 30 13.5 29.5 13.5ZM16 20C13.7 20 11.3996 20.8996 9.59961 22.5996L3.59961 28.5996C0.0996094 32.0996 0.0996094 37.8008 3.59961 41.3008C5.39961 43.1008 7.7 44 10 44C12.3 44 14.6004 43.1004 16.4004 41.4004L22.4004 35.4004C24.9004 32.9004 25.6 29.2996 24.5 26.0996L20.9004 29.5996C20.8004 30.6996 20.3 31.7 19.5 32.5L13.5 38.5C12.6 39.5 11.3 40 10 40C8.7 40 7.4 39.5 6.5 38.5C4.6 36.6 4.6 33.4004 6.5 31.4004L12.5 25.4004C13.3 24.6004 14.3004 24.1 15.4004 24L19 20.4004C18 20.2004 17 20 16 20Z" fill="#E2383E"/>
</svg>
